OpenSim_Sub06_CSStiffKnee_LCS.mot
version=1
nRows=76
nColumns=11
inDegrees=no
endheader
time	Bot_Shank	2nd_Bot_Shank	2nd_Top_Shank	Top_Shank	Bot_Thigh	Med_Thigh	Top_Thigh	BNOx	BNOy	BNOZ
17.91000000	10581.71832382	10553.40069754	10395.30516123	10813.05579406	13318.83182297	14219.39764368	15023.03872520	208.74268371	-70.92946790	131.93311840
17.92000000	10556.41981752	10553.49990686	10407.81036844	10815.04722604	13288.12823678	14201.78208997	15004.17316079	207.88757400	-71.17675103	135.38173858
17.93000000	10525.08264683	10549.12690094	10412.49652161	10814.28321701	13247.39681567	14177.61140184	14980.85866990	206.93279349	-71.45411382	138.45999577
17.94000000	10491.90269760	10542.07307822	10411.58767863	10811.79478575	13202.42321149	14150.41183742	14955.81360497	205.93827682	-71.75252026	141.05893418
17.95000000	10461.09917388	10534.14222026	10407.32667521	10808.62021634	13159.02653277	14123.73034397	14931.77113662	204.96429918	-72.06285374	143.06980284
17.96000000	10436.89127969	10527.13810862	10401.95634702	10805.79779288	13123.02588805	14101.11386878	14911.46443544	204.07113575	-72.37599764	144.38385082
17.97000000	10423.27358409	10522.77667975	10397.62654202	10804.31437943	13099.94429255	14085.93024937	14897.48857566	203.31592566	-72.68319928	144.90881590
17.98000000	10420.87945083	10521.45944718	10395.09573617	10804.38744382	13090.87432802	14078.86731078	14890.37230025	202.70888345	-72.98115127	144.79915659
17.99000000	10427.75478117	10522.57607907	10394.05132452	10805.64217117	13093.49801974	14078.54979914	14889.05368631	202.22410105	-73.27073804	144.39925742
18.00000000	10441.87891789	10525.49021541	10394.15315019	10807.68851103	13105.40966164	14083.54939100	14892.42989350	201.83474117	-73.55295185	144.05838851
18.01000000	10461.23120373	10529.56549620	10395.06105630	10810.13641294	13124.20354764	14092.43776293	14899.39808146	201.51396652	-73.82878495	144.12581997
18.02000000	10483.79098145	10534.16556141	10396.43488598	10812.59582646	13147.47397169	14103.78659148	14908.85540985	201.23493983	-74.09922962	144.95082191
18.03000000	10507.53759380	10538.65405103	10397.93448234	10814.67670112	13172.81522772	14116.16755323	14919.69903832	200.97082381	-74.36527809	146.88266444
18.04000000	10530.45038355	10542.39460506	10399.21968852	10815.98898648	13197.82160964	14128.15232473	14930.82612652	200.69478118	-74.62792263	150.27061768
18.05000000	10550.50869344	10544.75086347	10399.95034763	10816.14263209	13220.08741140	14138.31258254	14941.13383411	200.37997465	-74.88815551	155.46395172
18.06000000	10565.92773848	10545.18268055	10399.84173894	10814.83476905	13237.48509109	14145.38787166	14949.63426644	200.00275278	-75.14703712	162.68450415
18.07000000	10576.66597700	10543.86099437	10399.01884945	10812.40685473	13249.94291378	14149.35838967	14956.18904950	199.56300943	-75.40613163	171.21230638
18.08000000	10583.46319413	10541.27545283	10397.79029835	10809.48913542	13258.31056335	14150.76039832	14961.04056693	199.07119153	-75.66722896	179.90526954
18.09000000	10587.06286052	10537.91720719	10396.46557106	10806.71321962	13263.44206999	14150.13278228	14964.43299843	198.53779578	-75.93212010	187.61931362
18.10000000	10588.20844680	10534.27740873	10395.35415297	10804.71071584	13266.19146386	14148.01442626	14966.61052365	197.97331892	-76.20259603	193.21035862
18.11000000	10587.64342363	10530.84720870	10394.76552949	10804.11323259	13267.41277517	14144.94421495	14967.81732228	197.38825764	-76.48044776	195.53432452
18.12000000	10586.11126165	10528.11775837	10395.00918600	10805.55237838	13267.96003408	14141.46103302	14968.29757398	196.79310866	-76.76746625	193.44713133
18.13000000	10584.35543150	10526.58020900	10396.39460792	10809.65976169	13268.68727078	14138.10376518	14968.29545844	196.19836869	-77.06544252	185.80469903
18.14000000	10583.11940382	10526.72571185	10399.23128064	10817.06699105	13270.44851545	14135.41129611	14968.05515532	195.61453445	-77.37616754	171.46294762
18.15000000	10583.06428641	10528.96579583	10403.76387788	10828.28900346	13273.95591383	14133.85601371	14967.79237996	195.05022294	-77.70088017	149.51807085
18.16000000	10584.24247412	10533.12353090	10409.75807443	10842.97846054	13278.87299687	14133.41885307	14967.51247832	194.50015897	-78.03673860	120.84203578
18.17000000	10586.43353486	10538.75823794	10416.76485640	10860.40154958	13284.39330327	14133.86047866	14967.12650823	193.95284081	-78.37907208	87.10271632
18.18000000	10589.41574962	10545.42799377	10424.33419716	10879.82263485	13289.70815481	14134.94051594	14966.54508274	193.39673738	-78.72320123	49.97174065
18.19000000	10592.96739938	10552.69087519	10432.01607013	10900.50608064	13294.00887325	14136.41859037	14965.67881491	192.82031757	-79.06444665	11.12073695
18.20000000	10596.86676513	10560.10495900	10439.36044871	10921.71625124	13296.48678035	14138.05432740	14964.43831781	192.21205030	-79.39812896	-27.77866658
18.21000000	10600.89212788	10567.22832201	10445.91730630	10942.71751091	13296.33319788	14139.60735250	14962.73420448	191.56040447	-79.71956878	-65.05484178
18.22000000	10604.82176859	10573.61904101	10451.23661630	10962.77422395	13292.73944760	14140.83729113	14960.47708800	190.85384898	-80.02408671	-99.03616044
18.23000000	10608.43396827	10578.83519281	10454.86835211	10981.15075463	13284.89685128	14141.50376874	14957.57758141	190.08085276	-80.30700338	-128.05099440
18.24000000	10611.50700790	10582.43485421	10456.36248713	10997.11146724	13271.99673068	14141.36641081	14953.94629779	189.22988470	-80.56363939	-150.42771546
18.25000000	10613.81916847	10583.97610201	10455.26899477	11009.92072605	13253.23040756	14140.18484278	14949.49385018	188.28941371	-80.78931536	-164.49469545
18.26000000	10615.16914112	10583.11135032	10451.28469391	11019.11872446	13228.13732320	14137.77365046	14944.18189563	187.25189990	-80.97626223	-169.05321993
18.27000000	10615.46601093	10580.00326282	10444.90065829	11025.73755451	13198.13982035	14134.24468798	14938.24817681	186.13139098	-81.09999960	-165.46246054
18.28000000	10614.65601562	10574.98622557	10436.87526475	11031.31140047	13165.29392433	14129.80985390	14932.02335184	184.94919983	-81.13042292	-155.94243467
18.29000000	10612.68542090	10568.39475402	10427.96709157	11037.37482498	13131.65613797	14124.68112214	14925.83814886	183.72664483	-81.03742340	-142.71380844
18.30000000	10609.50049248	10560.56336362	10418.93471703	11045.46239066	13099.28296412	14119.07046664	14920.02329601	182.48504434	-80.79089226	-127.99724794
18.31000000	10605.04749606	10551.82656981	10410.53671941	11057.10866014	13070.23090561	14113.18986133	14914.90952144	181.24571675	-80.36072073	-114.01341929
18.32000000	10599.31612279	10542.54447896	10403.51206875	11073.66767216	13046.35699445	14107.29865013	14910.81442644	180.02774361	-79.72122285	-102.75259448
18.33000000	10592.61700488	10533.26633026	10398.45481806	11095.15928111	13028.04404848	14102.00627066	14907.95859669	178.83367499	-78.87940022	-94.50228904
18.34000000	10585.40462128	10524.62613279	10395.89406806	11121.00535599	13015.01413839	14098.07907360	14906.51913520	177.65865151	-77.85690506	-88.78683799
18.35000000	10578.13412946	10517.25829547	10396.35861313	11150.62494513	13006.98621815	14096.28414976	14906.67293985	176.49777883	-76.67545872	-85.12697646
18.36000000	10571.26068691	10511.79722724	10400.37724761	11183.43709685	13003.67924171	14097.38858997	14908.59690854	175.34616263	-75.35678255	-83.04343957
18.37000000	10565.23945109	10508.87733704	10408.47876587	11218.86085948	13004.81216303	14102.15948505	14912.46793916	174.19890857	-73.92259787	-82.05696245
18.38000000	10560.52557949	10509.13303380	10421.19196227	11256.31528133	13010.10393609	14111.36392584	14918.46292961	173.05112233	-72.39462604	-81.68828022
18.39000000	10557.57422956	10513.19872645	10439.04563117	11295.21941072	13019.27351483	14125.76900314	14926.75877777	171.89790956	-70.79458840	-81.45812800
18.40000000	10556.84055880	10521.70882394	10462.56856692	11334.99229599	13032.03985322	14146.14180779	14937.53238156	170.73437593	-69.14420628	-80.88724091
18.41000000	10558.70359709	10535.15842067	10492.14539320	11375.07113159	13048.10226499	14173.05666878	14950.89459441	169.55787812	-67.46676121	-79.55881180
18.42000000	10562.97974400	10553.01298970	10527.09522215	11415.02722333	13067.01491036	14205.66328457	14966.46816013	168.38240912	-65.79706533	-77.51763514
18.43000000	10569.23322650	10574.27652476	10566.25960049	11454.49198610	13088.26689131	14242.47283004	14983.65705034	167.22941837	-64.17509889	-75.01539658
18.44000000	10577.02708206	10597.95084275	10608.47782228	11493.09711835	13111.34700292	14281.99346816	15001.86420469	166.12039048	-62.64086650	-72.30475771
18.45000000	10585.92434816	10623.03776062	10652.58918157	11530.47431850	13135.74404029	14322.73336190	15020.49256285	165.07681008	-61.23437275	-69.63838009
18.46000000	10595.48806228	10648.53909527	10697.43297243	11566.25528500	13160.94679851	14363.20067423	15038.94506448	164.12016177	-59.99562226	-67.26892529
18.47000000	10605.28126190	10673.45666365	10741.84848890	11600.07171626	13186.44407267	14401.90356812	15056.62464925	163.27193018	-58.96461965	-65.44905488
18.48000000	10614.86698449	10696.79228268	10784.67502505	11631.55531073	13211.72465788	14437.35020654	15072.93425683	162.55359990	-58.18136951	-64.43143043
18.49000000	10623.80826753	10717.54776927	10824.75187493	11660.33776685	13236.27734922	14468.04875245	15087.27682687	161.98665557	-57.68587646	-64.46871352
18.50000000	10631.66814849	10734.72494036	10860.91833260	11686.05078304	13259.59094180	14492.50736882	15099.05529905	161.59258179	-57.51814510	-65.81356571
18.51000000	10638.00966486	10747.32561288	10892.01369212	11708.32605773	13281.15423069	14509.23421863	15107.67261302	161.39286318	-57.71818005	-68.71864858
18.52000000	10642.39585411	10754.35160374	10916.87724753	11726.79528938	13300.45601100	14516.73746485	15112.53170845	161.40898435	-58.32598591	-73.43662369
18.53000000	10644.44723986	10754.96989218	10934.42245927	11741.04611876	13316.96947708	14513.79477822	15113.08506058	161.66414324	-59.37171096	-80.08242592
18.54000000	10644.20920427	10749.56811015	10944.11092354	11750.34057319	13330.05252407	14501.17566052	15109.15124350	162.19420040	-60.81265901	-87.75310380
18.55000000	10641.91755235	10739.08098973	10945.64991262	11753.79473905	13339.01136964	14480.54235806	15100.71291791	163.04069174	-62.57348475	-95.08948615
18.56000000	10637.80898734	10724.44584367	10938.74785764	11750.52401433	13343.15198772	14453.56132821	15087.75351848	164.24517997	-64.57868889	-100.73024985
18.57000000	10632.12021245	10706.59998474	10923.11318976	11739.64379702	13341.78035222	14421.89902833	15070.25647989	165.84922780	-66.75277212	-103.31407175
18.58000000	10625.08793094	10686.48072567	10898.45434009	11720.26948509	13334.20243708	14387.22191582	15048.20523683	167.89439793	-69.02023513	-101.47962872
18.59000000	10616.94884603	10665.02537923	10864.47973978	11691.51647653	13319.72421621	14351.19644803	15021.58322397	170.42225307	-71.30557862	-93.86559761
18.60000000	10607.93966094	10643.17125817	10820.89781996	11652.50016932	13297.65166352	14315.48908234	14990.37387599	173.47435593	-73.53330329	-79.11065529
18.61000000	10598.29948962	10621.78254771	10767.85267766	11602.77687389	13267.61111240	14281.48387629	14954.76278431	177.06720027	-75.62720263	-56.32062817
18.62000000	10588.28048489	10601.32790240	10707.84483051	11544.28769862	13230.96164969	14249.03744901	14916.02896139	181.08168764	-77.50724498	-27.12805146
18.63000000	10578.13918779	10582.14286265	10644.16783957	11479.77634559	13189.64551314	14217.49236671	14875.81940598	185.35308655	-79.09211136	5.98418648
18.64000000	10568.13214267	10564.56286853	10580.11586349	11411.98712172	13145.60537993	14186.19080821	14835.78139411	189.71663114	-80.30048183	40.53255648
18.65000000	10558.51589386	10548.92336012	10518.98306093	11343.66433390	13100.78392726	14154.47495235	14797.56220182	194.00755555	-81.05103644	74.03352935
18.66000000	10549.54698570	10535.55977749	10464.06359056	11277.55228903	13057.12383229	14121.68697796	14762.80910514	198.06109390	-81.26245523	104.00357592
